# xmcd
#
# Track frame offsets:
#	150
#	28025
#	58562
#	77487
#	96497
#	122232
#	147987
#	171040
#	192132
#	211167
#	235907
#	266307
#
# Disc length: 3932 seconds
#
# Revision: 4
# Processed by: cddbd v1.5.2PL0 Copyright (c) Steve Scherf et al.
# Submitted via: EZCDAudioConverter 8.0.2.1
#
DISCID=a00f5a0c
DTITLE=Various Artist - Tình Yêu Tình Bạn
DYEAR=1993
DGENRE=Pop
TTITLE0=Hương Lan - Vì yêu em
TTITLE1=Ngọc Minh - Sao chưa thấy hồi âm
TTITLE2=Thanh Mai - Tình đến rồi đi
TTITLE3=Carol Kim - Rồi như đá ngây ngô
TTITLE4=Jo Marcel - Biết nói gì đây
TTITLE5=Thúy Vi - Trong trái tim ta
TTITLE6=Elvis Phương - Tình Yêu Tình Bạn
TTITLE7=Thái Hiền - Cho nhau
TTITLE8=Như Mai - Yêu em dĩ vãng
TTITLE9=Duy Quang - Quán bên đường
TTITLE10=Carol Kim, Duy Quang - Tình vẫn chưa yên
TTITLE11=Khánh Ly - Mùa thu xa em
EXTD=
EXTT0=
EXTT1=
EXTT2=
EXTT3=
EXTT4=
EXTT5=
EXTT6=
EXTT7=
EXTT8=
EXTT9=
EXTT10=
EXTT11=
PLAYORDER=
